<svg width="120" height="120" viewBox="0 0 120 120" fill="none" xmlns="http://www.w3.org/2000/svg">
<g clip-path="url(#clip0_917_4035)">
<path d="M60 120C93.1371 120 120 93.1371 120 60C120 26.8629 93.1371 0 60 0C26.8629 0 0 26.8629 0 60C0 93.1371 26.8629 120 60 120Z" fill="#004A24"/>
<path d="M35.7771 84.2231L70.6174 119.063C95.2441 114.666 114.667 95.2439 119.064 70.6169L84.2233 35.7769L35.7771 84.2231Z" fill="#012B15"/>
<path d="M73.8418 73.8417L35.7768 84.2231C22.3986 70.845 22.3986 49.1548 35.7768 35.7766C49.1549 22.3985 70.8451 22.3985 84.2232 35.7766L73.8418 73.8417Z" fill="white"/>
<path d="M88.058 79.6617C97.447 66.2967 96.1697 47.7229 84.2233 35.7769L35.7771 84.2231C47.7232 96.1694 66.2969 97.4468 79.6619 88.0577L93.8887 93.8883L88.058 79.6617Z" fill="#E2E2EB"/>
<path d="M47.4231 72.5768L38.0718 63.2254L46.1908 55.1064L55.5419 64.4575L57.8148 72.5768H47.4231Z" fill="#7EE780"/>
<path d="M47.4119 72.576L75.0644 44.9235L83.1822 53.0413L55.5297 80.6938L47.4119 72.576Z" fill="#00D926"/>
</g>
<defs>
<clipPath id="clip0_917_4035">
<rect width="120" height="120" fill="white"/>
</clipPath>
</defs>
</svg>
