<svg width="40" height="40" viewBox="0 0 40 40" fill="none" xmlns="http://www.w3.org/2000/svg">
<g clip-path="url(#clip0_917_854)">
<path d="M40 20C40 31.0458 31.0458 40 20 40C8.95416 40 0 31.0458 0 20C0 8.95416 8.95416 0 20 0C31.0458 0 40 8.95416 40 20Z" fill="#004A24"/>
<path d="M27.7951 8.36517L25.7327 10.4279L25.8679 14.2349L22.3282 21.4462L11.0181 10.1361L8.95569 12.1985L20.2658 23.5086L12.1719 31.6028L20.5609 39.9918C31.1606 39.6997 39.6991 31.1612 39.9918 20.5621L27.7951 8.36517Z" fill="#012B15"/>
<path d="M22.1149 26.3916V32.0312H29.6344C30.4132 32.0312 31.0443 31.4001 31.0443 30.6213V27.8015H28.2245L22.1149 26.3916Z" fill="#BBB99E"/>
<path d="M14.5953 26.3916L13.1854 32.0312H22.1149C22.8937 32.0312 23.5248 31.4001 23.5248 30.6213V26.3916H14.5953Z" fill="#D4D2B6"/>
<path d="M26.8146 7.96875H20L16.2402 17.8851L20 27.8015H28.2245V9.37866C28.2245 8.59985 27.5934 7.96875 26.8146 7.96875Z" fill="#F2F0CA"/>
<path d="M10.3656 7.96875L11.7755 12.1985V30.6213C11.7755 31.4001 12.4066 32.0312 13.1854 32.0312C13.9642 32.0312 14.5953 31.4001 14.5953 30.6213V27.8015H20V7.96875H10.3656Z" fill="#FFFEEB"/>
<path d="M24.6997 17.1802V18.5901H20L18.5901 17.8851L20 17.1802H24.6997Z" fill="#293560"/>
<path d="M18.1201 17.1802H20V18.5901H18.1201V17.1802Z" fill="#484686"/>
<path d="M24.6997 12.9504V14.3604H20L18.5901 13.6554L20 12.9504H24.6997Z" fill="#293560"/>
<path d="M18.1201 12.9504H20V14.3604H18.1201V12.9504Z" fill="#484686"/>
<path d="M24.6997 21.4099V22.8198H20L18.5901 22.1149L20 21.4099H24.6997Z" fill="#293560"/>
<path d="M18.1201 21.4099H20V22.8198H18.1201V21.4099Z" fill="#484686"/>
<path d="M15.3003 12.9504H16.7102V14.3604H15.3003V12.9504Z" fill="#004A24"/>
<path d="M15.3003 17.1802H16.7102V18.5901H15.3003V17.1802Z" fill="#004A24"/>
<path d="M15.3003 21.4099H16.7102V22.8198H15.3003V21.4099Z" fill="#004A24"/>
<path d="M10.3656 7.96875C11.1444 7.96875 11.7755 8.59985 11.7755 9.37866V12.1985H8.95569V9.37866C8.95569 8.59985 9.58679 7.96875 10.3656 7.96875Z" fill="#D4D2B6"/>
</g>
<defs>
<clipPath id="clip0_917_854">
<rect width="40" height="40" fill="white"/>
</clipPath>
</defs>
</svg>
