<svg width="24" height="24" viewBox="0 0 24 24" fill="none" xmlns="http://www.w3.org/2000/svg">
<path d="M16 13.7523C13.7943 13.7523 12 15.5466 12 17.7523C12 19.958 13.7943 21.7523 16 21.7523C18.2057 21.7523 20 19.958 20 17.7523C20 15.5466 18.2057 13.7523 16 13.7523ZM17.7143 18.3237H15.4286V16.038H16.5714V17.1809H17.7143V18.3237Z" fill="white"/>
<path d="M6.4404 2.56458C6.34059 2.82096 6.28573 3.09943 6.28573 3.39048V4.53334H5.14288C4.85183 4.53334 4.57335 4.58819 4.31697 4.688C4.72192 3.73448 5.48688 2.96953 6.4404 2.56458Z" fill="white"/>
<path d="M8.57143 2.24756C7.94019 2.24756 7.42857 2.75918 7.42857 3.39042V5.67613H5.14286C4.51162 5.67613 4 6.18775 4 6.81899V20.6095H11.7253C11.1771 19.7916 10.8571 18.8087 10.8571 17.7523C10.8571 16.6959 11.1771 15.7131 11.7253 14.8952H8.57143V13.7523H12V14.523C12.9436 13.3565 14.3863 12.6095 16 12.6095C16.1931 12.6095 16.384 12.6201 16.5714 12.6411V2.24756H8.57143ZM7.42857 14.8952H6.28571V13.7523H7.42857V14.8952ZM7.42857 12.6095H6.28571V11.4666H7.42857V12.6095ZM7.42857 10.3237H6.28571V9.18089H7.42857V10.3237ZM14.2857 12.6095H8.57143V11.4666H14.2857V12.6095ZM14.2857 10.3237H8.57143V9.18089H14.2857V10.3237Z" fill="white"/>
</svg>
