<svg width="40" height="40" viewBox="0 0 40 40" fill="none" xmlns="http://www.w3.org/2000/svg">
<path d="M20 40C31.0457 40 40 31.0457 40 20C40 8.9543 31.0457 0 20 0C8.9543 0 0 8.9543 0 20C0 31.0457 8.9543 40 20 40Z" fill="#004A24"/>
<path d="M39.9489 21.441L21.9602 3.45235L7.71899 29.9398L17.6416 39.8624C18.4151 39.9533 19.2021 40 20.0001 40C30.5612 40 39.2104 31.8141 39.9489 21.441Z" fill="#012B15"/>
<path d="M19.9049 10.5575L17.9389 9.28906L15.973 10.5576C15.973 10.5576 5.16016 12.567 5.16016 22.9329C5.16016 33.2988 15.5262 32.9911 17.9389 32.9911C20.3516 32.9911 30.7177 33.2989 30.7177 22.9329C30.7177 12.5669 19.9049 10.5575 19.9049 10.5575Z" fill="#FFFEEB"/>
<path d="M30.7179 22.9328C30.7179 33.2992 20.3515 32.9914 17.939 32.9914V9.28906L19.9046 10.5578C19.9046 10.5578 20.4366 10.657 21.2647 10.9234C24.1694 11.8602 30.7179 14.8664 30.7179 22.9328Z" fill="#F2F0CA"/>
<path d="M21.9602 3.45195H13.9176C13.9176 3.45195 13.2027 7.65453 15.9729 10.5575H19.9048C22.675 7.65453 21.9602 3.45195 21.9602 3.45195Z" fill="#FFFEEB"/>
<path d="M21.2663 8.52422C20.9499 9.22578 20.5108 9.92266 19.9046 10.5578H17.939V3.45235H21.9601C21.9601 3.45235 22.3968 6.01719 21.2663 8.52422Z" fill="#F2F0CA"/>
<path d="M14.6118 8.52444H21.266V10.9238H14.6118V8.52444Z" fill="#7C4532"/>
<path d="M32.4356 32.992H23.9866C23.4709 32.992 23.0491 32.5702 23.0491 32.0545V30.6779C23.0491 30.1623 23.4709 29.7404 23.9866 29.7404H32.4356C32.9513 29.7404 33.3731 30.1623 33.3731 30.6779V32.0545C33.3731 32.5702 32.9513 32.992 32.4356 32.992Z" fill="#FFF8B1"/>
<path d="M33.3734 30.6781V32.0547C33.3734 32.5703 32.9516 32.9922 32.4359 32.9922H28.2109V29.7406H32.4359C32.5859 29.7406 32.7289 29.7766 32.8547 29.8398C33.1617 29.9945 33.3734 30.3125 33.3734 30.6781Z" fill="#FFE992"/>
<path d="M32.4356 29.9398H23.9866C23.4709 29.9398 23.0491 29.518 23.0491 29.0023V27.6257C23.0491 27.1101 23.4709 26.6882 23.9866 26.6882H32.4356C32.9513 26.6882 33.3731 27.1101 33.3731 27.6257V29.0023C33.3731 29.518 32.9513 29.9398 32.4356 29.9398Z" fill="#FFE992"/>
<path d="M33.3734 27.6258V29.0023C33.3734 29.368 33.1617 29.6859 32.8547 29.8398C32.7289 29.9039 32.5859 29.9398 32.4359 29.9398H28.2109V26.6883H32.4359C32.5859 26.6883 32.7289 26.7242 32.8547 26.7883C33.1617 26.9422 33.3734 27.2601 33.3734 27.6258Z" fill="#FFCF91"/>
<path d="M32.4356 26.8876H23.9866C23.4709 26.8876 23.0491 26.4658 23.0491 25.9501V24.5735C23.0491 24.0579 23.4709 23.636 23.9866 23.636H32.4356C32.9513 23.636 33.3731 24.0579 33.3731 24.5735V25.9501C33.3731 26.4658 32.9513 26.8876 32.4356 26.8876Z" fill="#FFF8B1"/>
<path d="M33.3734 24.5734V25.95C33.3734 26.3156 33.1617 26.6336 32.8547 26.7883C32.7289 26.8516 32.5859 26.8875 32.4359 26.8875H28.2109V23.6359H32.4359C32.5859 23.6359 32.7289 23.6719 32.8547 23.7351C33.1617 23.8898 33.3734 24.2078 33.3734 24.5734Z" fill="#FFE992"/>
<path d="M32.4356 23.8355H23.9866C23.4709 23.8355 23.0491 23.4136 23.0491 22.898V21.5213C23.0491 21.0057 23.4709 20.5838 23.9866 20.5838H32.4356C32.9513 20.5838 33.3731 21.0057 33.3731 21.5213V22.898C33.3731 23.4136 32.9513 23.8355 32.4356 23.8355Z" fill="#FFE992"/>
<path d="M33.3734 21.5211V22.8976C33.3734 23.2633 33.1617 23.5812 32.8547 23.7351C32.7289 23.7992 32.5859 23.8351 32.4359 23.8351H28.2109V20.5836H32.4359C32.5859 20.5836 32.7289 20.6195 32.8547 20.6836C33.1617 20.8375 33.3734 21.1555 33.3734 21.5211Z" fill="#FFCF91"/>
<path d="M32.4356 20.7833H23.9866C23.4709 20.7833 23.0491 20.3614 23.0491 19.8458V18.4691C23.0491 17.9535 23.4709 17.5316 23.9866 17.5316H32.4356C32.9513 17.5316 33.3731 17.9535 33.3731 18.4691V19.8458C33.3731 20.3614 32.9513 20.7833 32.4356 20.7833Z" fill="#FFF8B1"/>
<path d="M33.3734 18.4695V19.8461C33.3734 20.2117 33.1617 20.5297 32.8547 20.6836C32.7289 20.7477 32.5859 20.7836 32.4359 20.7836H28.2109V17.532H32.4359C32.9516 17.532 33.3734 17.9539 33.3734 18.4695Z" fill="#FFE992"/>
<path d="M17.939 8.52422H21.2663V10.9234H17.939V8.52422Z" fill="#5B2B24"/>
</svg>
