<svg width="96" height="96" viewBox="0 0 96 96" fill="none" xmlns="http://www.w3.org/2000/svg">
<circle cx="48" cy="48" r="44" fill="#FFFEEB" stroke="#004A24" stroke-width="8"/>
<path fill-rule="evenodd" clip-rule="evenodd" d="M41.3333 39.6667C41.3333 37.8986 42.0357 36.2029 43.286 34.9526C44.5362 33.7024 46.2319 33 48 33C49.7681 33 51.4638 33.7024 52.714 34.9526C53.9643 36.2029 54.6667 37.8986 54.6667 39.6667C54.6667 41.4348 53.9643 43.1305 52.714 44.3807C51.4638 45.631 49.7681 46.3333 48 46.3333C46.2319 46.3333 44.5362 45.631 43.286 44.3807C42.0357 43.1305 41.3333 41.4348 41.3333 39.6667ZM41.3333 49.6667C39.1232 49.6667 37.0036 50.5446 35.4408 52.1074C33.878 53.6702 33 55.7899 33 58C33 59.3261 33.5268 60.5979 34.4645 61.5355C35.4021 62.4732 36.6739 63 38 63H58C59.3261 63 60.5979 62.4732 61.5355 61.5355C62.4732 60.5979 63 59.3261 63 58C63 55.7899 62.122 53.6702 60.5592 52.1074C58.9964 50.5446 56.8768 49.6667 54.6667 49.6667H41.3333Z" fill="#004A24"/>
</svg>
