<svg width="80" height="80" viewBox="0 0 80 80" fill="none" xmlns="http://www.w3.org/2000/svg">
<circle cx="40" cy="40" r="40" fill="#004A24"/>
<g clip-path="url(#clip0_17_173)">
<path d="M40 72C57.6731 72 72 57.6731 72 40C72 22.3269 57.6731 8 40 8C22.3269 8 8 22.3269 8 40C8 57.6731 22.3269 72 40 72Z" fill="#FFFEEB"/>
<path d="M71.421 33.9214C71.421 33.9211 71.4209 33.9209 71.4209 33.9206L58.7502 21.25L57.5019 22.4984L56.6367 21.6333L55.2709 22.9991L53.905 21.6333L51.879 23.6593L49.853 21.6333L47.8599 23.6264L45.8667 21.6333L43.7501 23.7498L48.4336 28.4331L45.9334 30.9334L36.25 21.25L34.2974 23.2026L32.7785 21.6838L30.8226 23.6396L28.8667 21.6838L26.8325 23.718L24.7982 21.6838L21.7999 24.682L23.6142 26.4964L21.7999 28.3107L23.6611 30.172L21.7999 32.0333L23.419 33.6524L21.7999 35.2715L22.0621 35.5338L21.2502 36.3455L23.8587 38.954L21.2502 41.5625L23.7116 44.0239L21.7999 45.9356L23.6437 47.7795L21.7999 49.6234L23.6817 51.5052L21.7999 53.3871L23.6044 55.1916L21.7999 56.9961L22.402 57.5983L21.2502 58.75L33.921 71.4207C34.8095 71.5916 35.7114 71.7241 36.6241 71.8205L36.6269 71.8232C37.7355 71.9394 38.8607 72 40.0001 72C57.6732 72 72.0001 57.6731 72.0001 40C72.0001 38.934 71.9467 37.8806 71.845 36.8414L71.844 36.8404C71.7466 35.8538 71.6054 34.8799 71.421 33.9214Z" fill="#F2F0CA"/>
<path d="M28.125 28.125V51.875H40L41.7426 40L40 28.125H28.125Z" fill="white"/>
<path d="M40 28.125H51.875V51.875H40V28.125Z" fill="#E9EDF5"/>
<path d="M21.25 38.4375V41.5625H40L41.4485 40L40 38.4375H21.25Z" fill="#044A26"/>
<path d="M40 38.4375H58.75V41.5625H40V38.4375Z" fill="#012B15"/>
<path d="M23.75 36.3456V23.75H36.25V21.25H21.25V36.3456H23.75Z" fill="#484686"/>
<path d="M23.75 43.8456H21.25V58.75H36.25V56.25H23.75V43.8456Z" fill="#484686"/>
<path d="M56.25 36.3456H58.75V21.25H43.75V23.75H56.25V36.3456Z" fill="#293560"/>
<path d="M56.25 43.8456V56.25H43.75V58.75H58.75V43.8456H56.25Z" fill="#293560"/>
</g>
<defs>
<clipPath id="clip0_17_173">
<rect width="64" height="64" fill="white" transform="translate(8 8)"/>
</clipPath>
</defs>
</svg>
