<svg width="24" height="24" viewBox="0 0 24 24" fill="none" xmlns="http://www.w3.org/2000/svg">
<mask id="path-1-inside-1_854_1766" fill="white">
<path fill-rule="evenodd" clip-rule="evenodd" d="M20.41 9.86003C20.3517 9.85733 20.2934 9.85633 20.235 9.85703H17.8C15.808 9.85703 14.102 11.438 14.102 13.5C14.102 15.562 15.808 17.143 17.801 17.143H20.234C20.2953 17.1437 20.3537 17.1424 20.409 17.139C20.82 17.1124 21.2074 16.9374 21.4991 16.6466C21.7908 16.3558 21.967 15.969 21.995 15.558C21.999 15.499 21.999 15.436 21.999 15.378V11.622C21.999 11.564 21.999 11.501 21.995 11.442C21.9671 11.0312 21.791 10.6446 21.4995 10.3538C21.208 10.063 20.8209 9.88793 20.41 9.86103M17.587 14.472C18.1 14.472 18.517 14.038 18.517 13.501C18.517 12.964 18.1 12.53 17.587 12.53C17.074 12.53 16.658 12.964 16.658 13.501C16.658 14.038 17.073 14.472 17.587 14.472Z"/>
</mask>
<path d="M20.235 9.85703V10.8571L20.247 10.857L20.235 9.85703ZM20.234 17.143L20.2449 16.143H20.234V17.143ZM20.409 17.139L20.4691 18.1372L20.4738 18.1369L20.409 17.139ZM21.995 15.558L22.9927 15.6259L22.9927 15.6257L21.995 15.558ZM21.995 11.442L22.9927 11.3744L22.9927 11.3742L21.995 11.442ZM20.41 9.86003L20.4563 8.8611C20.3786 8.8575 20.3008 8.85617 20.223 8.8571L20.235 9.85703L20.247 10.857C20.2859 10.8565 20.3248 10.8572 20.3637 10.859L20.41 9.86003ZM20.235 9.85703V8.85703H17.8V9.85703V10.857H20.235V9.85703ZM17.8 9.85703V8.85703C15.2879 8.85703 13.102 10.8541 13.102 13.5H14.102H15.102C15.102 12.022 16.3281 10.857 17.8 10.857V9.85703ZM14.102 13.5H13.102C13.102 16.1461 15.2881 18.143 17.801 18.143V17.143V16.143C16.3279 16.143 15.102 14.9779 15.102 13.5H14.102ZM17.801 17.143V18.143H20.234V17.143V16.143H17.801V17.143ZM20.234 17.143L20.2231 18.143C20.3057 18.1439 20.3878 18.1421 20.4691 18.1372L20.409 17.139L20.3489 16.1408C20.3195 16.1426 20.285 16.1435 20.2449 16.1431L20.234 17.143ZM20.409 17.139L20.4738 18.1369C21.1266 18.0946 21.7418 17.8166 22.2051 17.3548L21.4991 16.6466L20.7931 15.9384C20.673 16.0581 20.5135 16.1301 20.3443 16.1411L20.409 17.139ZM21.4991 16.6466L22.2051 17.3548C22.6684 16.893 22.9483 16.2786 22.9927 15.6259L21.995 15.558L20.9973 15.4901C20.9858 15.6593 20.9132 15.8186 20.7931 15.9384L21.4991 16.6466ZM21.995 15.558L22.9927 15.6257C22.9994 15.527 22.999 15.4294 22.999 15.378H21.999H20.999C20.999 15.4426 20.9986 15.4711 20.9973 15.4904L21.995 15.558ZM21.999 15.378H22.999V11.622H21.999H20.999V15.378H21.999ZM21.999 11.622H22.999C22.999 11.5706 22.9994 11.4731 22.9927 11.3744L21.995 11.442L20.9973 11.5097C20.9986 11.529 20.999 11.5574 20.999 11.622H21.999ZM21.995 11.442L22.9927 11.3742C22.9483 10.7217 22.6687 10.1076 22.2057 9.6458L21.4995 10.3538L20.7933 11.0618C20.9133 11.1815 20.9858 11.3407 20.9973 11.5099L21.995 11.442ZM21.4995 10.3538L22.2057 9.6458C21.7427 9.18399 21.1279 8.90589 20.4753 8.86317L20.41 9.86103L20.3447 10.8589C20.5138 10.87 20.6732 10.9421 20.7933 11.0618L21.4995 10.3538ZM17.587 14.472V15.472C18.6916 15.472 19.517 14.5502 19.517 13.501H18.517H17.517C17.517 13.5073 17.5154 13.5033 17.5225 13.4959C17.5261 13.4921 17.5332 13.4862 17.5451 13.4809C17.5578 13.4753 17.5728 13.472 17.587 13.472V14.472ZM18.517 13.501H19.517C19.517 12.4519 18.6916 11.53 17.587 11.53V12.53V13.53C17.5728 13.53 17.5578 13.5267 17.5451 13.5211C17.5332 13.5159 17.5261 13.5099 17.5225 13.5062C17.5154 13.4988 17.517 13.4947 17.517 13.501H18.517ZM17.587 12.53V11.53C16.481 11.53 15.658 12.4533 15.658 13.501H16.658H17.658C17.658 13.494 17.6599 13.4979 17.6525 13.5057C17.6488 13.5095 17.6415 13.5156 17.6294 13.521C17.6164 13.5267 17.6013 13.53 17.587 13.53V12.53ZM16.658 13.501H15.658C15.658 14.548 16.4793 15.472 17.587 15.472V14.472V13.472C17.6008 13.472 17.6157 13.4752 17.6288 13.481C17.6411 13.4864 17.6485 13.4926 17.6524 13.4967C17.6601 13.5048 17.658 13.5087 17.658 13.501H16.658Z" fill="white" mask="url(#path-1-inside-1_854_1766)"/>
<path d="M10.3789 5.5H12.416C14.2004 5.5 15.5643 5.50113 16.6211 5.64453C17.6944 5.78988 18.486 6.08578 19.0986 6.70215V6.70312C19.4351 7.04228 19.674 7.43589 19.8467 7.90039H17.8008C14.8084 7.90051 12.1582 10.2836 12.1582 13.5C12.1582 16.7165 14.8095 19.0995 17.8018 19.0996H19.8467C19.674 19.5637 19.4359 19.9576 19.0996 20.2959H19.0986C18.486 20.9135 17.6948 21.2101 16.6211 21.3555C15.5643 21.4989 14.2014 21.5 12.416 21.5H10.3789C8.59454 21.5 7.23058 21.4989 6.17383 21.3555C5.10014 21.2101 4.30892 20.9136 3.69629 20.2959H3.69531C3.08262 19.6798 2.78833 18.8797 2.64355 17.7959C2.50098 16.7285 2.5 15.3529 2.5 13.5547V13.4453C2.5 11.6471 2.501 10.2704 2.64355 9.20508C2.78814 8.12171 3.08192 7.32378 3.69434 6.70312C4.23064 6.1631 4.9043 5.8681 5.7832 5.70605L6.17285 5.64453C7.23064 5.50112 8.59457 5.5 10.3789 5.5ZM5.6123 8.38574C5.45143 8.38641 5.29192 8.41927 5.14355 8.48145C4.99526 8.5436 4.86031 8.63389 4.74707 8.74805C4.63389 8.86217 4.54434 8.99776 4.4834 9.14648C4.43766 9.25822 4.40875 9.37632 4.39746 9.49609L4.3916 9.61426C4.39174 10.2888 4.93472 10.8428 5.61426 10.8428H9.46973C10.1073 10.8428 10.6243 10.3563 10.6865 9.73926L10.6934 9.61426C10.694 9.2898 10.5656 8.97829 10.3369 8.74805C10.108 8.51755 9.79654 8.38708 9.47168 8.38574H5.6123Z" stroke="white"/>
<path d="M11.4997 2.49963C12.0279 2.49963 12.5425 2.66916 12.9674 2.98303H12.9684L13.6735 3.50256C13.2899 3.50038 12.8926 3.49963 12.4831 3.49963H10.3131C9.9758 3.49963 9.64703 3.5004 9.32778 3.50159L10.0319 2.98303C10.4568 2.66908 10.9714 2.49971 11.4997 2.49963Z" stroke="white"/>
</svg>
