<svg width="24" height="24" viewBox="0 0 24 24" fill="none" xmlns="http://www.w3.org/2000/svg">
<path d="M12 0L11.5312 5.71875L12 10.5361L17.2681 5.26805L12 0Z" fill="#24B3B3"/>
<path d="M4.5802 7.4198L9.84829 12.6879L12 10.5361V0L4.5802 7.4198Z" fill="#2EE6A8"/>
<path d="M12 1.98871L11.5312 5.71874L12 8.54741L15.2794 5.26804L12 1.98871Z" fill="#198080"/>
<path d="M6.56885 7.41979L9.84822 10.6992L12 8.54741V1.98871L6.56885 7.41979Z" fill="#24B3B3"/>
<path d="M21.308 6.90146L17.8886 1.78412L12 5.71876L12.6073 12.7674L13.3029 13.8085L21.308 6.90146Z" fill="#2EE6A8"/>
<path d="M12.1378 7.31798L13.691 11.8579L20.0773 7.59074L17.5007 3.73462L12.1378 7.31798Z" fill="#24B3B3"/>
<path d="M22.5938 5.71875H12L11.5312 14.8594L12 24H22.5938V5.71875Z" fill="#283366"/>
<path d="M3.51562 5.71875C1.57711 5.71875 0 7.29586 0 9.23438V20.4844C0 22.4229 1.57711 24 3.51562 24H12V5.71875H3.51562Z" fill="#404A80"/>
<path d="M15.5625 11.3438H24V18.375H15.5625V11.3438Z" fill="#404A80"/>
<path d="M16.9688 12.75H22.5938V16.9688H16.9688V12.75Z" fill="#283366"/>
<path d="M18.375 14.1562H19.7812V15.5625H18.375V14.1562Z" fill="#ECE6F2"/>
</svg>
